<?xml version="1.0" encoding="UTF-8"?>
<!DOCTYPE svg PUBLIC "-//W3C//DTD SVG 1.1//EN" "http://www.w3.org/Graphics/SVG/1.1/DTD/svg11.dtd">
<svg version="1.1" xmlns="http://www.w3.org/2000/svg" xmlns:xlink="http://www.w3.org/1999/xlink" x="0" y="0" width="20" height="20" viewBox="460 380 20 20">
    <path d="m 464.03,383.39108 0,0 -1,1 0,1 0,1 0,1 1,1 0,0 1,1 1,0 1,0 1,0 1,-1 0,0 1,-1 0,-1 0,-1 0,-1 -1,-1 0,0 -1,-1 -1,0 -1,0 -1,0 z m 2,1 1,0 1,1 0,1 -1,1 -1,0 -1,-1 0,-1 z"/>
    <path d="m 474.03,384.39108 -1,1 0,2 1,1 2,0 1,-1 0,-2 -1,-1 -2,0 z m 1,1 c 0.5523,0 1,0.4477 1,1 0,0.5523 -0.4477,1 -1,1 -0.5523,0 -1,-0.4477 -1,-1 0,-0.5523 0.4477,-1 1,-1 z"/>
    <path d="m 472.03,390.39108 -1,1 0,2 1,1 2,0 1,-1 0,-2 -1,-1 -2,0 z m 1,1 c 0.5523,0 1,0.4477 1,1 0,0.5523 -0.4477,1 -1,1 -0.5523,0 -1,-0.4477 -1,-1 0,-0.5523 0.4477,-1 1,-1 z"/>
    <path d="m 466.03,392.39108 -1,1 0,2 1,1 2,0 1,-1 0,-2 -1,-1 -2,0 z m 1,1 c 0.5523,0 1,0.4477 1,1 0,0.5523 -0.4477,1 -1,1 -0.5523,0 -1,-0.4477 -1,-1 0,-0.5523 0.4477,-1 1,-1 z"/>
    <path d="m 470.37375,389.02888 -0.6875,0.71875 1,1 0.6875,-0.71875 -1,-1 z"/>
    <path d="m 471.03,385.40388 0,1 1,0 0,-1 -1,0 z"/>
    <path d="m 466.03,390.40388 0,1 1,0 0,-1 -1,0 z"/>
</svg>