<?xml version="1.0" encoding="UTF-8"?>
<!DOCTYPE svg PUBLIC "-//W3C//DTD SVG 1.1//EN" "http://www.w3.org/Graphics/SVG/1.1/DTD/svg11.dtd">
<svg version="1.1" xmlns="http://www.w3.org/2000/svg" xmlns:xlink="http://www.w3.org/1999/xlink" x="0" y="0" width="20" height="20" viewBox="0 0 20 20">
    <path d="m 13.037037,13.187037 c 1.24275,0 2.25,1.00725 2.25,2.25 0,1.24275 -1.00725,2.25 -2.25,2.25 -1.24275,0 -2.25,-1.00725 -2.25,-2.25 0,-1.24275 1.00725,-2.25 2.25,-2.25 z m 0,1.35 c -0.49725,0 -0.9,0.40275 -0.9,0.9 0,0.49725 0.40275,0.9 0.9,0.9 0.49725,0 0.9,-0.40275 0.9,-0.9 0,-0.49725 -0.40275,-0.9 -0.9,-0.9 z m 1.914815,-9.2129625 c 1.24275,0 2.25,1.00725 2.25,2.2499996 0,1.2427502 -1.00725,2.2500002 -2.25,2.2500002 -1.24275,0 -2.25,-1.00725 -2.25,-2.2500002 0,-1.2427496 1.00725,-2.2499996 2.25,-2.2499996 z m 0,1.35 c -0.49725,0 -0.9,0.4027496 -0.9,0.8999996 0,0.4972502 0.40275,0.9000002 0.9,0.9000002 0.49725,0 0.9,-0.40275 0.9,-0.9000002 0,-0.49725 -0.40275,-0.8999996 -0.9,-0.8999996 z M 5.3370369,2.3092598 c 1.24275,0 2.25,1.00725 2.25,2.2499996 0,1.2427502 -1.00725,2.2500002 -2.25,2.2500002 -1.24275,0 -2.25,-1.00725 -2.25,-2.2500002 0,-1.2427496 1.00725,-2.2499996 2.25,-2.2499996 z m 0,1.35 c -0.49725,0 -0.9,0.4027496 -0.9,0.8999996 0,0.4972502 0.40275,0.9000002 0.9,0.9000002 0.49725,0 0.9,-0.40275 0.9,-0.9000002 0,-0.49725 -0.40275,-0.8999996 -0.9,-0.8999996 z M 6.4728854,10.82037 c 1.24275,0 2.25,1.00725 2.25,2.25 0,1.24275 -1.00725,2.25 -2.25,2.25 -1.24275,0 -2.25,-1.00725 -2.25,-2.25 0,-1.24275 1.00725,-2.25 2.25,-2.25 z m 0,1.35 c -0.49725,0 -0.9,0.40275 -0.9,0.9 0,0.49725 0.40275,0.9 0.9,0.9 0.49725,0 0.9,-0.40275 0.9,-0.9 0,-0.49725 -0.40275,-0.9 -0.9,-0.9 z" fill="currentColor"/>
    <path d="M 7.8629628,13.848148 11.488889,15.07037 M 5.3777777,6.0259262 6.1518517,11.525926 M 14.544444,9.1222224 13.607407,13.888889 M 6.7222221,5.2925929 13.444444,7.2074076" stroke="currentColor"/>
</svg>
