<?xml version="1.0" encoding="UTF-8"?>
<!DOCTYPE svg PUBLIC "-//W3C//DTD SVG 1.1//EN" "http://www.w3.org/Graphics/SVG/1.1/DTD/svg11.dtd">
<svg version="1.1" xmlns="http://www.w3.org/2000/svg" xmlns:xlink="http://www.w3.org/1999/xlink" x="0" y="0" width="20" height="20" viewBox="0 0 20 20">
    <path d="M3.187 2.448c-.322 0-.6.118-.835.352A1.142 1.142 0 0 0 2 3.636v3.858c0 .327.082.689.246 1.085.164.396.363.708.598.937l6.632 6.64c.228.23.506.344.834.344.322 0 .604-.114.845-.343l4.553-4.563c.228-.23.343-.508.343-.836 0-.321-.115-.602-.343-.843L9.077 3.293c-.235-.235-.55-.435-.946-.6-.396-.163-.758-.245-1.086-.245zm1.781 1.78c.328 0 .608.117.84.349.232.232.347.512.347.84 0 .327-.115.607-.347.839a1.144 1.144 0 0 1-.84.347c-.327 0-.607-.115-.84-.347a1.144 1.144 0 0 1-.347-.84c0-.327.116-.607.348-.84.232-.231.512-.347.84-.347zm4.607 2.896h.895c.125 0 .23.044.317.13a.432.432 0 0 1 .131.318v1.94h1.94c.124 0 .23.044.317.13.087.088.13.193.13.317v.896c0 .124-.043.23-.13.316a.43.43 0 0 1-.317.131h-1.94v1.94c0 .125-.044.23-.13.317a.431.431 0 0 1-.318.131h-.895a.432.432 0 0 1-.317-.13.431.431 0 0 1-.13-.318v-1.94h-1.94a.431.431 0 0 1-.317-.13.43.43 0 0 1-.131-.317v-.896c0-.124.044-.23.13-.316a.431.431 0 0 1 .317-.131h1.94v-1.94c0-.125.044-.23.131-.317a.431.431 0 0 1 .317-.131z" fill="currentColor"/>
    <path d="M19.27 9.915l-6.632-6.623c-.235-.235-.55-.434-.946-.598-.396-.164-.757-.246-1.085-.246H8.529c.328 0 .69.082 1.085.246.396.164.712.363.947.598l6.631 6.623c.229.24.343.522.343.844 0 .327-.114.605-.343.834l-4.36 4.36c.187.191.35.33.492.417.143.086.325.13.548.13.321 0 .603-.115.844-.344l4.553-4.563c.23-.229.344-.507.344-.834 0-.322-.115-.603-.344-.844z" fill="currentColor"/>
</svg>
