<?xml version="1.0" encoding="UTF-8"?>
<!DOCTYPE svg PUBLIC "-//W3C//DTD SVG 1.1//EN" "http://www.w3.org/Graphics/SVG/1.1/DTD/svg11.dtd">
<svg version="1.1" xmlns="http://www.w3.org/2000/svg" xmlns:xlink="http://www.w3.org/1999/xlink" x="0" y="0" width="20" height="20" viewBox="580 0 20 20">
    <path d="m 595.1053,11.179672 c 0,-0.318922 -0.11346,-0.598047 -0.34041,-0.837311 l -6.5781,-6.5689471 c -0.23305,-0.2332381 -0.54585,-0.4309651 -0.9384,-0.593439 -0.39252,-0.1625062 -0.75143,-0.2437754 -1.07651,-0.2437754 h -3.82729 c -0.31889,0 -0.59499,0.1166191 -0.82797,0.3495671 -0.23314,0.2330769 -0.34966,0.5091085 -0.34966,0.8280949 v 3.8272886 c 0,0.3250767 0.0812,0.6837632 0.24374,1.0764138 0.16261,0.3926507 0.36049,0.7022276 0.59347,0.9292464 l 6.5782,6.5873147 c 0.22695,0.226955 0.50295,0.340416 0.82797,0.340416 0.31895,0 0.59814,-0.113461 0.83731,-0.340416 l 4.51736,-4.526519 c 0.22683,-0.227019 0.34029,-0.502825 0.34029,-0.827934 z M 584.94375,6.7128963 c -0.23004,0.2300156 -0.50759,0.3450879 -0.8327,0.3450879 -0.32498,0 -0.60253,-0.1150723 -0.83257,-0.3450879 -0.23005,-0.2300479 -0.34496,-0.5074974 -0.34496,-0.8325741 0,-0.3251089 0.11491,-0.6026551 0.34496,-0.8325741 0.23004,-0.2300478 0.50759,-0.3451201 0.83257,-0.3451201 0.32511,0 0.60266,0.1150723 0.8327,0.3451201 0.22992,0.229919 0.34503,0.5074974 0.34503,0.8325741 -4e-5,0.3250767 -0.11511,0.6025262 -0.34503,0.8325741 z" id="icon-paste-tags-overwrite-shape" fill="currentColor"/>
    <path d="m 598.29768,10.342458 -6.5782,-6.5689152 C 591.4865,3.5403047 591.17364,3.3425777 590.78105,3.1800715 590.38866,3.0175976 590.02981,2.9363284 589.7047,2.9363284 h -2.06082 c 0.32507,0 0.68386,0.081269 1.07634,0.2437431 0.39266,0.1626028 0.70545,0.3603299 0.93853,0.5934713 l 6.57813,6.5689152 c 0.22705,0.239199 0.34064,0.518292 0.34064,0.837214 0,0.325109 -0.11359,0.600883 -0.34064,0.827934 l -4.32418,4.324152 c 0.18426,0.190122 0.3467,0.328106 0.48765,0.413983 0.14114,0.08591 0.32211,0.128832 0.54278,0.128832 0.31911,0 0.59824,-0.113461 0.83718,-0.340416 l 4.51737,-4.526519 c 0.22705,-0.227051 0.34064,-0.502825 0.34064,-0.827934 -1.3e-4,-0.318954 -0.11359,-0.598047 -0.34064,-0.837246 z" id="path877" fill="#000000"/>
</svg>