<?xml version="1.0" encoding="UTF-8"?>
<!DOCTYPE svg PUBLIC "-//W3C//DTD SVG 1.1//EN" "http://www.w3.org/Graphics/SVG/1.1/DTD/svg11.dtd">
<svg version="1.1" xmlns="http://www.w3.org/2000/svg" xmlns:xlink="http://www.w3.org/1999/xlink" x="0" y="0" width="20" height="20" viewBox="600 0 20 20">
    <path d="m 602.24163,2.9678703 c -0.32147,0 -0.59959,0.1174255 -0.83446,0.3522604 -0.23503,0.2349648 -0.35226,0.5139063 -0.35226,0.8354764 l 0,3.8576068 c 0,0.3277098 0.0818,0.6893747 0.24567,1.0852057 0.16392,0.3958311 0.36306,0.7081348 0.59793,0.9369924 l 6.63204,6.641175 c 0.22879,0.228792 0.50681,0.343124 0.83446,0.343124 0.32153,0 0.60351,-0.114332 0.84461,-0.343124 l 4.55299,-4.563143 c 0.22866,-0.228858 0.34313,-0.507734 0.34313,-0.835477 0,-0.321505 -0.11434,-0.602395 -0.34313,-0.843597 l -6.63102,-6.6218868 c -0.23493,-0.2351273 -0.5504,-0.4351543 -0.94613,-0.5989443 -0.3957,-0.1638224 -0.7575,-0.2456686 -1.08521,-0.2456686 l -3.85862,0 z m 1.78161,1.7805901 c 0.32774,0 0.60762,0.1162886 0.83953,0.3481998 0.23179,0.2317812 0.34719,0.5118272 0.34719,0.839537 -3e-5,0.3277098 -0.1154,0.6076259 -0.34719,0.8395371 -0.23191,0.2318787 -0.51179,0.3471846 -0.83953,0.3471846 -0.32762,0 -0.60763,-0.1153059 -0.83954,-0.3471846 -0.23191,-0.2319112 -0.3482,-0.5118273 -0.3482,-0.8395371 0,-0.3277423 0.11629,-0.6077558 0.3482,-0.839537 0.23191,-0.2319112 0.51192,-0.3481998 0.83954,-0.3481998 z m 4.60679,2.8952354 0.89537,0 c 0.1245,0 0.22969,0.043964 0.31673,0.1309556 0.087,0.087057 0.13096,0.1924161 0.13096,0.3167298 l 0,1.9399698 1.93997,0 c 0.12431,0 0.22965,0.0439 0.31673,0.130956 0.0871,0.08701 0.13092,0.192335 0.13095,0.31673 l 0,0.895371 c 0,0.124428 -0.0439,0.229754 -0.13095,0.316729 -0.087,0.08709 -0.1923,0.130956 -0.31673,0.130956 l -1.93997,0 0,1.93997 c 0,0.124314 -0.0439,0.229657 -0.13096,0.31673 -0.0871,0.08698 -0.19232,0.130956 -0.31673,0.130956 l -0.89537,0 c -0.12433,0 -0.22967,-0.04398 -0.31673,-0.130956 -0.0871,-0.08702 -0.13095,-0.192416 -0.13095,-0.31673 l 0,-1.93997 -1.93997,0 c -0.12432,0 -0.22968,-0.04387 -0.31673,-0.130956 -0.0871,-0.08697 -0.13096,-0.192301 -0.13096,-0.316729 l 0,-0.895371 c 0,-0.124395 0.0439,-0.229673 0.13096,-0.31673 0.087,-0.08706 0.19241,-0.130956 0.31673,-0.130956 l 1.93997,0 0,-1.9399698 c 0,-0.1243137 0.0439,-0.2296726 0.13095,-0.3167298 0.0871,-0.087057 0.1924,-0.1309556 0.31673,-0.1309556 z" id="icon-paste-tags-append-shape" fill="currentColor"/>
    <path d="m 618.32438,10.434329 -6.63147,-6.622122 c -0.23487,-0.2351272 -0.55027,-0.4344558 -0.94603,-0.5982782 -0.39558,-0.16379 -0.75733,-0.2457174 -1.08507,-0.2457174 h -2.07752 c 0.32771,0 0.6894,0.081927 1.08506,0.2457174 0.39584,0.1639198 0.71117,0.3632485 0.94613,0.5982782 l 6.63142,6.622122 c 0.22889,0.241137 0.3434,0.522491 0.3434,0.843996 0,0.327742 -0.11451,0.60575 -0.3434,0.83464 l -4.35921,4.359177 c 0.18575,0.191662 0.3495,0.330763 0.49159,0.417336 0.14229,0.0866 0.32473,0.129875 0.54718,0.129875 0.3217,0 0.60309,-0.11438 0.84397,-0.343172 l 4.55395,-4.563184 c 0.22889,-0.22889 0.3434,-0.506897 0.3434,-0.83464 -1.3e-4,-0.321537 -0.11451,-0.602891 -0.3434,-0.844028 z" id="path881" fill="#000000"/>
</svg>