<?xml version="1.0" encoding="iso-8859-1"?>
<!-- Generator: Adobe Illustrator 19.1.0, SVG Export Plug-In . SVG Version: 6.00 Build 0)  -->
<svg version="1.1" id="Capa_1" xmlns="http://www.w3.org/2000/svg" xmlns:xlink="http://www.w3.org/1999/xlink" x="0px" y="0px"
	 viewBox="0 0 48 48" style="enable-background:new 0 0 48 48;" xml:space="preserve">
<g id="info_1_">
	<g>
		<path d="M22,38h4V20h-4V38z M24,10c-1.76,0-3,1.48-3,3c0,1.52,1.24,3,3,3c1.759,0,3-1.36,3-3C27,11.36,25.759,10,24,10z M24,0
			C10.745,0,0,10.745,0,24c0,13.255,10.745,24,24,24c13.255,0,24-10.745,24-24C48,10.745,37.255,0,24,0z M24,44
			C12.972,44,4,35.028,4,24S12.972,4,24,4c11.028,0,20,8.972,20,20S35.028,44,24,44z"/>
	</g>
</g>
</svg>
