<?xml version="1.0" encoding="utf-8"?>
<!-- Generator: Adobe Illustrator 16.0.0, SVG Export Plug-In . SVG Version: 6.00 Build 0)  -->
<!DOCTYPE svg PUBLIC "-//W3C//DTD SVG 1.1//EN" "http://www.w3.org/Graphics/SVG/1.1/DTD/svg11.dtd">
<svg version="1.1" id="Capa_1" xmlns="http://www.w3.org/2000/svg" xmlns:xlink="http://www.w3.org/1999/xlink" x="0px" y="0px"
	 width="396px" height="306px" viewBox="0 0 396 306" enable-background="new 0 0 396 306" xml:space="preserve">
<g id="info_1_">
	<g>
		<path fill="#FFFFFF" d="M185.25,242.25h25.5V127.5h-25.5V242.25z M198,63.75c-11.22,0-19.125,9.435-19.125,19.125
			S186.78,102,198,102c11.214,0,19.125-8.67,19.125-19.125S209.214,63.75,198,63.75z M198,0C113.5,0,45,68.5,45,153
			c0,84.5,68.5,153,153,153c84.5,0,153-68.5,153-153C351,68.5,282.5,0,198,0z M198,280.5c-70.304,0-127.5-57.196-127.5-127.5
			S127.696,25.5,198,25.5S325.5,82.696,325.5,153S268.304,280.5,198,280.5z"/>
	</g>
</g>
</svg>
